<?xml version="1.0" standalone="no"?>
<!DOCTYPE svg PUBLIC "-//W3C//DTD SVG 20010904//EN"
 "http://www.w3.org/TR/2001/REC-SVG-20010904/DTD/svg10.dtd">
<svg version="1.0" xmlns="http://www.w3.org/2000/svg"
 width="100.000000pt" height="100.000000pt" viewBox="0 0 100.000000 100.000000"
 preserveAspectRatio="xMidYMid meet">

<g transform="translate(0.000000,100.000000) scale(0.100000,-0.100000)"
fill="#000000" stroke="none">
<path d="M811 946 c-87 -48 -50 -186 49 -186 51 0 100 49 100 99 0 75 -83 124
-149 87z m89 -46 c11 -11 20 -29 20 -40 0 -11 -9 -29 -20 -40 -11 -11 -29 -20
-40 -20 -11 0 -29 9 -40 20 -11 11 -20 29 -20 40 0 11 9 29 20 40 11 11 29 20
40 20 11 0 29 -9 40 -20z"/>
<path d="M227 874 c-15 -15 -4 -25 83 -84 50 -33 90 -63 90 -67 0 -4 -7 -14
-15 -23 -9 -10 -18 -33 -22 -52 -8 -56 20 -101 96 -154 36 -26 70 -51 75 -55
5 -4 -14 -34 -43 -65 -28 -32 -51 -64 -51 -71 0 -7 -3 -13 -6 -13 -4 0 -85 43
-181 96 -131 73 -177 94 -186 85 -8 -8 -8 -14 3 -25 8 -7 171 -100 362 -205
225 -125 361 -195 386 -198 64 -9 143 40 113 70 -6 6 -19 2 -37 -12 -44 -35
-78 -27 -220 52 l-131 72 64 70 c91 98 117 139 109 169 -3 14 -32 46 -64 72
-90 73 -73 71 43 -6 59 -38 115 -70 126 -70 25 0 59 35 59 60 0 24 -34 58 -84
85 l-36 20 0 87 c0 98 -12 133 -51 154 -47 24 -73 16 -175 -50 l-97 -64 -89
59 c-98 66 -111 73 -121 63z m473 -54 c17 -17 20 -33 20 -118 l0 -97 55 -33
c61 -37 72 -49 56 -65 -7 -7 -30 3 -81 36 -67 45 -70 49 -70 86 0 49 -10 56
-53 35 -34 -16 -34 -16 -91 22 -65 43 -67 37 38 108 76 51 97 55 126 26z
m-204 -156 c51 -34 67 -54 44 -54 -28 0 -2 -35 65 -87 41 -31 75 -63 75 -71 0
-7 -35 -54 -77 -103 -56 -64 -84 -89 -98 -87 -37 5 -28 37 29 102 31 35 56 68
56 74 0 6 -36 36 -80 67 -88 62 -110 87 -110 125 0 24 24 70 36 70 3 0 30 -16
60 -36z"/>
</g>
</svg>
